<svg width="35" height="28" viewBox="0 0 35 28" fill="none" xmlns="http://www.w3.org/2000/svg">
    <path d="M17.4998 21.8749C13.3518 21.8749 9.99399 18.6643 9.68501 14.5955L3.94831 10.1621C3.19417 11.1082 2.50019 12.1084 1.94019 13.2021C1.81509 13.4496 1.74991 13.723 1.74991 14.0003C1.74991 14.2776 1.81509 14.551 1.94019 14.7984C4.90588 20.5849 10.7771 24.4999 17.4998 24.4999C18.9715 24.4999 20.3911 24.2811 21.7594 23.9279L18.9217 21.7322C18.453 21.8227 17.9771 21.8705 17.4998 21.8749ZM34.6618 25.0522L28.6161 20.3798C30.4526 18.8321 31.963 16.9347 33.0595 14.7979C33.1846 14.5504 33.2498 14.277 33.2498 13.9997C33.2498 13.7224 33.1846 13.449 33.0595 13.2016C30.0938 7.41515 24.2225 3.50011 17.4998 3.50011C14.6843 3.50352 11.9144 4.21233 9.44329 5.56181L2.48597 0.184439C2.39524 0.113842 2.2915 0.0618142 2.18066 0.0313288C2.06982 0.000843427 1.95405 -0.00750224 1.83999 0.00676873C1.72592 0.0210397 1.61578 0.0576476 1.51587 0.1145C1.41596 0.171353 1.32823 0.247337 1.25769 0.338109L0.184178 1.72005C0.0417714 1.90324 -0.0220401 2.13549 0.00677801 2.36573C0.0355961 2.59597 0.154684 2.80533 0.337849 2.94777L32.5137 27.8156C32.6044 27.8862 32.7082 27.9382 32.819 27.9687C32.9298 27.9992 33.0456 28.0075 33.1597 27.9932C33.2737 27.979 33.3839 27.9424 33.4838 27.8855C33.5837 27.8286 33.6714 27.7527 33.742 27.6619L34.816 26.28C34.9584 26.0967 35.0221 25.8644 34.9932 25.6342C34.9643 25.4039 34.8451 25.1946 34.6618 25.0522ZM24.6147 17.2867L22.4654 15.6253C22.6464 15.1022 22.7424 14.5535 22.7498 14C22.7605 13.1897 22.581 12.3882 22.2257 11.6598C21.8704 10.9315 21.3492 10.2966 20.704 9.80618C20.0589 9.31578 19.3077 8.98352 18.5108 8.8361C17.7139 8.68867 16.8936 8.73019 16.1157 8.95732C16.4455 9.40417 16.6238 9.94468 16.6248 10.5C16.6167 10.6848 16.5884 10.8682 16.5406 11.0469L12.5151 7.93577C13.9134 6.76722 15.6775 6.12643 17.4998 6.12508C18.5341 6.12451 19.5584 6.3278 20.5141 6.72335C21.4698 7.1189 22.3382 7.69894 23.0696 8.43031C23.8009 9.16168 24.381 10.03 24.7765 10.9857C25.1721 11.9414 25.3754 12.9657 25.3748 14C25.3748 15.1829 25.0855 16.2854 24.6147 17.2872V17.2867Z"
          fill="white"/>
</svg>
