<svg width="9" height="10" viewBox="0 0 9 10" fill="none" xmlns="http://www.w3.org/2000/svg">
    <path d="M4.50001 0.733337C3.08675 0.733337 1.93334 1.88675 1.93334 3.3V4.03334H1.20001C0.794841 4.03334 0.466675 4.3615 0.466675 4.76667V9.16667C0.466675 9.57184 0.794841 9.9 1.20001 9.9H7.80001C8.20517 9.9 8.53334 9.57184 8.53334 9.16667V4.76667C8.53334 4.3615 8.20517 4.03334 7.80001 4.03334H7.06667V3.3C7.06667 1.93292 5.98009 0.831811 4.63035 0.759835C4.58888 0.743131 4.54471 0.734151 4.50001 0.733337ZM4.50001 1.46667C5.51702 1.46667 6.33334 2.28299 6.33334 3.3V4.03334H2.66667V3.3C2.66667 2.28299 3.483 1.46667 4.50001 1.46667Z"
          fill="#C1C1C1"/>
</svg>
