<svg width="35" height="23" viewBox="0 0 35 23" fill="none" xmlns="http://www.w3.org/2000/svg">
    <path d="M34.7886 10.6255C31.4933 4.28794 24.9697 0 17.5 0C10.0303 0 3.50483 4.29094 0.211425 10.6261C0.0724229 10.8972 0 11.1966 0 11.5003C0 11.804 0.0724229 12.1034 0.211425 12.3745C3.50666 18.7121 10.0303 23 17.5 23C24.9697 23 31.4952 18.7091 34.7886 12.3739C34.9276 12.1028 35 11.8034 35 11.4997C35 11.196 34.9276 10.8966 34.7886 10.6255ZM17.5 20.125C15.7694 20.125 14.0777 19.6192 12.6388 18.6714C11.1998 17.7237 10.0783 16.3767 9.41604 14.8006C8.75377 13.2246 8.58049 11.4904 8.91811 9.81735C9.25573 8.14426 10.0891 6.60743 11.3128 5.4012C12.5365 4.19498 14.0956 3.37352 15.793 3.04073C17.4903 2.70793 19.2496 2.87873 20.8485 3.53154C22.4473 4.18434 23.8139 5.28983 24.7754 6.70821C25.7368 8.12658 26.25 9.79414 26.25 11.5C26.2506 12.6328 26.0246 13.7546 25.5851 14.8013C25.1456 15.848 24.5011 16.799 23.6884 17.6C22.8758 18.401 21.911 19.0363 20.8491 19.4696C19.7873 19.9028 18.6492 20.1256 17.5 20.125ZM17.5 5.75C16.9793 5.75717 16.462 5.83353 15.9621 5.977C16.3742 6.52905 16.5719 7.2084 16.5195 7.89184C16.467 8.57529 16.1678 9.21758 15.6762 9.70223C15.1845 10.1869 14.5329 10.4818 13.8395 10.5335C13.1462 10.5852 12.457 10.3903 11.897 9.98404C11.578 11.1422 11.6356 12.3697 12.0616 13.4939C12.4875 14.6181 13.2604 15.5824 14.2714 16.2509C15.2824 16.9195 16.4806 17.2587 17.6975 17.2208C18.9143 17.1829 20.0884 16.7698 21.0546 16.0397C22.0208 15.3096 22.7304 14.2992 23.0835 13.1507C23.4366 12.0023 23.4155 10.7736 23.023 9.63758C22.6306 8.50159 21.8866 7.51551 20.8959 6.81813C19.9051 6.12074 18.7174 5.74718 17.5 5.75Z"
          fill="white"/>
</svg>
