<svg width="37" height="24" viewBox="0 0 37 24" fill="none" xmlns="http://www.w3.org/2000/svg">
    <path d="M5.55 10.2857C7.59078 10.2857 9.25 8.74821 9.25 6.85714C9.25 4.96607 7.59078 3.42857 5.55 3.42857C3.50922 3.42857 1.85 4.96607 1.85 6.85714C1.85 8.74821 3.50922 10.2857 5.55 10.2857ZM31.45 10.2857C33.4908 10.2857 35.15 8.74821 35.15 6.85714C35.15 4.96607 33.4908 3.42857 31.45 3.42857C29.4092 3.42857 27.75 4.96607 27.75 6.85714C27.75 8.74821 29.4092 10.2857 31.45 10.2857ZM33.3 12H29.6C28.5825 12 27.6633 12.3804 26.9927 12.9964C29.3225 14.1804 30.9759 16.3179 31.3344 18.8571H35.15C36.1733 18.8571 37 18.0911 37 17.1429V15.4286C37 13.5375 35.3408 12 33.3 12ZM18.5 12C22.0786 12 24.975 9.31607 24.975 6C24.975 2.68393 22.0786 0 18.5 0C14.9214 0 12.025 2.68393 12.025 6C12.025 9.31607 14.9214 12 18.5 12ZM22.94 13.7143H22.4602C21.2577 14.25 19.9222 14.5714 18.5 14.5714C17.0778 14.5714 15.7481 14.25 14.5398 13.7143H14.06C10.3831 13.7143 7.4 16.4786 7.4 19.8857V21.4286C7.4 22.8482 8.64297 24 10.175 24H26.825C28.357 24 29.6 22.8482 29.6 21.4286V19.8857C29.6 16.4786 26.6169 13.7143 22.94 13.7143ZM10.0073 12.9964C9.33672 12.3804 8.4175 12 7.4 12H3.7C1.65922 12 0 13.5375 0 15.4286V17.1429C0 18.0911 0.826719 18.8571 1.85 18.8571H5.65984C6.02406 16.3179 7.6775 14.1804 10.0073 12.9964Z"
          fill="#EEEEEE"/>
</svg>
