<svg width="96" height="96" viewBox="0 0 96 96" fill="none" xmlns="http://www.w3.org/2000/svg">
    <path d="M94.4645 11.607C96.4171 9.65434 96.4171 6.48851 94.4645 4.53589L91.4641 1.53553C89.5115 -0.417091 86.3457 -0.417088 84.393 1.53553L51.5355 34.393C49.5829 36.3457 46.4171 36.3457 44.4645 34.393L11.607 1.53553C9.65434 -0.417088 6.48851 -0.417087 4.53589 1.53553L1.53553 4.5359C-0.417091 6.48852 -0.417088 9.65434 1.53553 11.607L34.393 44.4645C36.3457 46.4171 36.3457 49.5829 34.393 51.5355L1.53553 84.393C-0.417088 86.3457 -0.417087 89.5115 1.53553 91.4641L4.5359 94.4645C6.48852 96.4171 9.65434 96.4171 11.607 94.4645L44.4645 61.607C46.4171 59.6543 49.5829 59.6543 51.5355 61.607L84.393 94.4645C86.3457 96.4171 89.5115 96.4171 91.4641 94.4645L94.4645 91.4641C96.4171 89.5115 96.4171 86.3457 94.4645 84.393L61.607 51.5355C59.6543 49.5829 59.6543 46.4171 61.607 44.4645L94.4645 11.607Z" fill="#ffffff"/>
</svg>