<svg width="40" height="40" viewBox="0 0 40 40" fill="none" xmlns="http://www.w3.org/2000/svg">
<g clip-path="url(#clip0_272_26)">
<path d="M39.2975 15.7231L34.2926 11.6441V5.12049C34.2926 4.38588 33.6948 3.78814 32.9602 3.78814H29.811C29.0764 3.78814 28.4786 4.38588 28.4786 5.12049V6.90549L21.7911 1.45506C21.3073 1.06092 20.6697 0.84375 19.9958 0.84375C19.3245 0.84375 18.6899 1.05959 18.2088 1.45167L0.702523 15.723C-0.0928939 16.3711 -0.0451713 16.9357 0.0540287 17.2145C0.152986 17.4928 0.471662 17.9596 1.49346 17.9596H3.89061V36.7272C3.89061 38.0666 4.97733 39.1561 6.31308 39.1561H13.8833C15.2078 39.1561 16.2452 38.0892 16.2452 36.7272V29.031C16.2452 28.3713 16.8514 27.7707 17.517 27.7707H22.6042C23.2386 27.7707 23.7548 28.3361 23.7548 29.031V36.7272C23.7548 38.0439 24.8919 39.1561 26.2379 39.1561H33.6869C35.0227 39.1561 36.1094 38.0665 36.1094 36.7272V17.9596H38.5066C39.5284 17.9596 39.8469 17.4928 39.946 17.2145C40.0452 16.9357 40.0929 16.3712 39.2975 15.7231Z" fill="white"/>
</g>
<defs>
<clipPath id="clip0_272_26">
<rect width="40" height="40" fill="white"/>
</clipPath>
</defs>
</svg>
