<svg width="50" height="50" viewBox="0 0 50 50" fill="none" xmlns="http://www.w3.org/2000/svg">
<path d="M32.8127 25C30.8048 25 28.8634 24.1035 27.3439 22.4766C25.8664 20.8896 24.964 18.7734 24.8048 16.5195C24.6349 14.1152 25.3683 11.9043 26.8693 10.293C28.3703 8.68164 30.4689 7.8125 32.8127 7.8125C35.1398 7.8125 37.2443 8.69727 38.7404 10.3047C40.2511 11.9277 40.9865 14.1348 40.8166 16.5186C40.6535 18.7754 39.7521 20.8906 38.2775 22.4756C36.7619 24.1035 34.8215 25 32.8127 25Z" fill="white"/>
<path d="M45.6865 42.1875H19.9394C19.5255 42.1897 19.1165 42.0969 18.7441 41.9163C18.3716 41.7356 18.0456 41.4719 17.791 41.1455C17.521 40.7916 17.3345 40.3812 17.2456 39.9451C17.1566 39.5089 17.1675 39.0583 17.2773 38.627C18.0996 35.3252 20.1367 32.5869 23.168 30.709C25.8584 29.043 29.2832 28.125 32.8125 28.125C36.4111 28.125 39.7461 29.0039 42.4521 30.6689C45.4902 32.5371 47.5303 35.291 48.3486 38.6328C48.4572 39.0645 48.4668 39.5151 48.3768 39.951C48.2869 40.387 48.0996 40.7969 47.8291 41.1504C47.5748 41.4753 47.2495 41.7377 46.8781 41.9175C46.5067 42.0973 46.0991 42.1896 45.6865 42.1875V42.1875Z" fill="white"/>
<path d="M14.3554 25.3906C10.9188 25.3906 7.89735 22.1953 7.61707 18.2686C7.4784 16.2568 8.10536 14.3965 9.37489 13.0322C10.6307 11.6816 12.4022 10.9375 14.3554 10.9375C16.3085 10.9375 18.0663 11.6855 19.329 13.0439C20.6083 14.4189 21.2333 16.2754 21.0868 18.2705C20.8065 22.1963 17.786 25.3906 14.3554 25.3906Z" fill="white"/>
<path d="M20.7675 28.4619C19.0497 27.6221 16.8202 27.2021 14.3563 27.2021C11.4794 27.2021 8.68544 27.9522 6.48817 29.3135C3.99696 30.8594 2.32118 33.1104 1.64442 35.8281C1.54538 36.219 1.53601 36.6273 1.61702 37.0223C1.69802 37.4174 1.8673 37.789 2.11219 38.1094C2.34456 38.4077 2.64226 38.6487 2.98238 38.814C3.32249 38.9792 3.69598 39.0642 4.07411 39.0625H14.914C15.0969 39.0625 15.2741 38.9982 15.4145 38.881C15.555 38.7637 15.6498 38.6009 15.6825 38.4209C15.6932 38.3594 15.7069 38.2979 15.7225 38.2373C16.5507 34.9111 18.4911 32.1006 21.3583 30.0518C21.4637 29.9757 21.5486 29.8746 21.6051 29.7575C21.6616 29.6405 21.6879 29.5111 21.6818 29.3813C21.6757 29.2514 21.6373 29.1252 21.5701 29.0139C21.5028 28.9026 21.4089 28.8099 21.2968 28.7441C21.1434 28.6543 20.9677 28.5596 20.7675 28.4619Z" fill="white"/>
</svg>
